<svg width="36" height="36" viewBox="0 0 36 36" fill="none" xmlns="http://www.w3.org/2000/svg">
<path d="M35.6784 17.835C35.6784 7.98238 27.6876 0 17.835 0C7.98238 0 0 7.98238 0 17.835C0 26.7355 6.52022 34.1143 15.0467 35.4574V22.995H10.5157V17.835H15.0467V13.9075C15.0467 9.43604 17.7075 6.97077 21.7879 6.97077C23.7431 6.97077 25.7833 7.31931 25.7833 7.31931V11.7058H23.5306C21.3119 11.7058 20.6233 13.0829 20.6233 14.4941V17.8435H25.5708L24.7802 23.0035H20.6233V35.4659C29.1497 34.1313 35.6699 26.7525 35.6699 17.8435L35.6784 17.835Z" fill="#DA0000"/>
<path d="M24.7802 22.9949L25.5708 17.8349H20.6232V14.4855C20.6232 13.0743 21.3118 11.6972 23.5306 11.6972H25.7833V7.3107C25.7833 7.3107 23.7431 6.96216 21.7879 6.96216C17.7159 6.96216 15.0466 9.42743 15.0466 13.8989V17.8264H10.5156V22.9864H15.0466V35.4488C15.9562 35.5933 16.8828 35.6698 17.8349 35.6698C18.787 35.6698 19.7136 35.5933 20.6232 35.4488V22.9864H24.7802V22.9949Z" fill="white"/>
</svg>
