<svg width="36" height="36" viewBox="0 0 36 36" fill="none" xmlns="http://www.w3.org/2000/svg">
<path d="M17.835 35.6699C27.6849 35.6699 35.6699 27.685 35.6699 17.835C35.6699 7.98499 27.6849 0 17.835 0C7.98498 0 0 7.98499 0 17.835C0 27.685 7.98498 35.6699 17.835 35.6699Z" fill="#DA0000"/>
<path d="M23.3775 11.0854C22.6974 11.0854 22.1533 11.638 22.1533 12.3096C22.1533 12.9812 22.7059 13.5337 23.3775 13.5337C24.049 13.5337 24.6016 12.9812 24.6016 12.3096C24.6016 11.638 24.049 11.0854 23.3775 11.0854Z" fill="white"/>
<path d="M17.9201 12.658C15.0808 12.658 12.7686 14.9702 12.7686 17.8095C12.7686 20.6488 15.0808 22.9611 17.9201 22.9611C20.7594 22.9611 23.0717 20.6488 23.0717 17.8095C23.0717 14.9702 20.7594 12.658 17.9201 12.658ZM17.9201 21.1079C16.1009 21.1079 14.6218 19.6287 14.6218 17.8095C14.6218 15.9903 16.1009 14.5112 17.9201 14.5112C19.7393 14.5112 21.2185 15.9903 21.2185 17.8095C21.2185 19.6287 19.7393 21.1079 17.9201 21.1079Z" fill="white"/>
<path d="M22.0085 28.2658H13.6606C10.2007 28.2658 7.37842 25.4435 7.37842 21.9836V13.6357C7.37842 10.1758 10.2007 7.35352 13.6606 7.35352H22.0085C25.4684 7.35352 28.2907 10.1673 28.2907 13.6357V21.9836C28.2907 25.4435 25.4684 28.2658 22.0085 28.2658ZM13.6606 9.32573C11.2803 9.32573 9.34213 11.2639 9.34213 13.6442V21.9921C9.34213 24.3724 11.2803 26.3106 13.6606 26.3106H22.0085C24.3888 26.3106 26.327 24.3724 26.327 21.9921V13.6442C26.327 11.2639 24.3888 9.32573 22.0085 9.32573H13.6606Z" fill="white"/>
</svg>
